####
#
# OBJ File Generated by Meshlab
#
####
# Object low-poly-rock-tri.obj
#
# Vertices: 27
# Faces: 50
#
####
mtllib ./low-poly-rock-tri.obj.mtl

vn 0.5299969 -0.6319295 0.5654807
v 97.1674042 -44.7214890 65.0241394
vn -0.2047777 -0.5872244 0.7830923
v -50.3647499 -44.7214813 99.7721481
vn -0.6257900 -0.7782639 0.0518865
v -130.0375977 -44.7215004 0.0000073
vn -0.2466696 -0.5906123 -0.7683302
v -50.3647499 -44.7215195 -120.5636597
vn 0.6563159 -0.5445082 -0.5222647
v 131.8592834 -44.7215157 -96.1227722
vn 0.2780555 0.4855198 0.8288279
v 50.3647499 44.7215157 96.4203568
vn 0.1464676 0.5419670 -0.8275380
v 50.3647499 44.7214813 -119.4564285
vn 0.6206914 0.6541512 -0.4322367
v 116.2247696 44.7214890 -71.1930771
vn 0.6176917 0.6747873 0.4038801
v 119.8031616 44.7215004 14.2063446
vn 0.9442474 -0.0748213 0.3206224
v 140.9205627 6.4010296 10.0821247
vn 0.9991944 0.0193924 -0.0351354
v 139.5037842 2.3301888 -35.0663414
vn 0.8634906 0.4579563 -0.2113291
v 136.6428833 44.7214928 -31.9854698
vn 0.1111622 0.9455411 0.3059330
v 19.3121662 73.4623947 36.9720001
vn 0.0651049 0.9602450 -0.2714607
v 20.9124126 71.9812622 -49.6006088
vn -0.1611099 0.9726204 -0.1674910
v -36.4368935 78.4555664 -17.9937992
vn -0.1516114 0.9353313 0.3196393
v -34.9167786 78.9929657 21.8698730
vn 0.1311303 0.9913324 -0.0080666
v 11.7815084 80.4324265 -3.6988413
vn -0.3506227 0.8848661 0.3067178
v -71.5493622 66.0424881 29.4022961
vn -0.9461059 0.0741054 0.3152650
v -145.3177185 6.0512462 23.7298298
vn -0.5205135 0.2231361 0.8241820
v -104.6157990 14.8208628 79.8223495
vn -0.2182636 0.6597477 0.7190925
v -63.1194496 44.7215080 62.4063148
vn -0.6230571 0.7296312 0.2818480
v -118.1368027 39.6400223 32.8775215
vn -0.9413250 0.0725630 -0.3296088
v -145.3177185 6.0512362 -36.9637718
vn -0.3292659 0.9178074 -0.2218413
v -71.5493622 66.0424805 -35.3335342
vn -0.2674488 0.6985046 -0.6637489
v -63.0909157 44.7214851 -85.6235962
vn -0.6064180 0.2704178 -0.7477510
v -103.0997925 13.1569643 -97.0240326
vn -0.6477173 0.6220406 -0.4399181
v -118.1368027 39.6400070 -48.1475906
# 27 vertices, 0 vertices normals


usemtl material_0
vt 0.7395339 0.9168320
vt 0.6699798 0.9168320
vt 0.6395690 0.9168320
f 1/1/1 2/2/2 3/3/3
f 1/1/1 3/3/3 4/2/4
f 1/1/1 4/2/4 5/1/5
vt 0.7084278 0.9509720
vt 0.7335663 0.9509720
f 5/1/5 7/4/7 8/5/8
vt 0.7424518 0.9347914
f 5/1/5 8/5/8 11/6/11
vt 0.7084278 0.9509721
f 2/2/2 1/1/1 6/7/6
vt 0.6651114 0.9509721
f 2/2/2 6/7/6 21/8/21
vt 0.6492724 0.9395591
f 2/2/2 21/8/21 20/9/20
f 5/1/5 4/2/4 7/4/7
vt 0.6971860 0.9613770
f 8/5/8 7/4/7 14/10/14
vt 0.6618937 0.9591101
f 18/11/18 21/8/21 6/7/6
vt 0.6965752 0.9619423
f 18/11/18 6/7/6 13/12/13
vt 0.6758763 0.9640533
f 18/11/18 13/12/13 16/13/16
f 24/11/24 18/11/18 16/13/16
vt 0.6752960 0.9638482
f 24/11/24 16/13/16 15/14/15
vt 0.6651223 0.9509720
f 7/4/7 25/15/25 24/11/24
f 7/4/7 24/11/24 15/14/15
f 7/4/7 15/14/15 14/10/14
vt 0.6498511 0.9389240
f 4/2/4 26/16/26 25/15/25
f 4/2/4 25/15/25 7/4/7
f 1/1/1 5/1/5 11/6/11
vt 0.7429925 0.9363453
f 1/1/1 11/6/11 10/17/10
f 3/3/3 2/2/2 20/9/20
vt 0.6337367 0.9362118
f 3/3/3 20/9/20 19/18/19
f 4/2/4 3/3/3 23/18/23
f 4/2/4 23/18/23 26/16/26
vt 0.7349322 0.9509721
f 6/7/6 9/19/9 13/12/13
f 10/17/10 11/6/11 8/5/8
vt 0.7413598 0.9509720
f 10/17/10 8/5/8 12/20/12
f 10/17/10 12/20/12 9/19/9
vt 0.6937008 0.9646028
f 17/21/17 14/10/14 15/14/15
f 17/21/17 15/14/15 16/13/16
f 17/21/17 16/13/16 13/12/13
f 8/5/8 14/10/14 17/21/17
f 8/5/8 17/21/17 12/20/12
f 12/20/12 17/21/17 13/12/13
f 12/20/12 13/12/13 9/19/9
f 1/1/1 10/17/10 9/19/9
f 1/1/1 9/19/9 6/7/6
vt 0.6441115 0.9490325
f 22/22/22 19/18/19 20/9/20
f 22/22/22 20/9/20 21/8/21
f 22/22/22 21/8/21 18/11/18
f 25/15/25 26/16/26 23/18/23
f 25/15/25 23/18/23 27/22/27
f 25/15/25 27/22/27 24/11/24
f 18/11/18 24/11/24 27/22/27
f 18/11/18 27/22/27 22/22/22
f 22/22/22 27/22/27 23/18/23
f 22/22/22 23/18/23 19/18/19
f 3/3/3 19/18/19 23/18/23
# 50 faces, 22 coords texture

# End of File
